<svg width="151.17663351615806" height="304.920004272461" viewBox="0 0 100 201.6978399243627" class="looka-1j8o68f"><defs id="SvgjsDefs5693"></defs><g id="SvgjsG5694" featurekey="symbolFeature-0" transform="matrix(0.08333836691847309,0,0,0.08333836691847309,28.665336104666356,166.51446334458524)" fill="#ffffff"><g xmlns="http://www.w3.org/2000/svg"><g><path d="M56.232,255.478l128.059-77.912c1.798-0.855,3.031-2.739,3.031-4.901v-37.66c-0.016-0.949-0.249-1.93-0.766-2.802    c-1.483-2.552-4.717-3.377-7.203-1.851L18.842,230.913c-1.671,0.903-2.827,2.716-2.827,4.824v38.965    c0.03,1.83,0.907,3.62,2.53,4.644l160.449,101.985c0.861,0.663,1.922,1.023,3.078,1.023c2.907,0,5.25-2.438,5.25-5.42v-37.616    c-0.032-1.861-0.937-3.676-2.594-4.668L56.232,255.478z M176.807,169.567L48.498,247.649l-1.031,0.825l-1.28,1.285    c-0.407,0.436-0.718,0.917-0.985,1.407c-1.061,2.103-1.296,4.444-0.764,6.545l0.062,0.273c0.578,2.162,1.984,4.112,3.969,5.295    l128.339,79.093v24.858L26.53,271.697v-32.941l150.277-94.134V169.567z M196.807,415.278l87.17-321.061    c0.469-2.49,2.607-4.396,5.172-4.396h23.061l1.404,0.226c2.797,0.793,4.406,3.796,3.628,6.676l-87.186,321.048    c-0.468,2.534-2.608,4.404-5.172,4.404h-23.029l-1.406-0.191C197.667,421.161,196.042,418.18,196.807,415.278z M293.133,100.706    l-84.358,310.607h12.156l84.356-310.607H293.133z M455.767,255.478l-128.072-77.912c-1.766-0.855-3.018-2.739-3.018-4.901v-37.66    c0.032-0.949,0.265-1.93,0.782-2.802c1.469-2.552,4.719-3.377,7.203-1.851l160.511,100.561c1.657,0.903,2.813,2.716,2.813,4.824    v38.965c-0.017,1.83-0.907,3.62-2.517,4.644L332.99,381.331c-0.846,0.663-1.922,1.023-3.049,1.023c-2.89,0-5.265-2.438-5.265-5.42    v-37.616c0.048-1.861,0.971-3.676,2.596-4.668L455.767,255.478z M335.193,169.567l128.322,78.082l1.047,0.825l1.236,1.285    c0.438,0.436,0.782,0.917,0.982,1.407c1.111,2.103,1.328,4.444,0.814,6.545l-0.08,0.273c-0.609,2.162-1.966,4.112-3.984,5.295    l-128.338,79.093v24.858l150.291-95.533v-32.941l-150.291-94.134V169.567z"></path></g></g></g><g id="SvgjsG5695" featurekey="nameFeature-0" transform="matrix(3.5061652207332994,0,0,3.5061652207332994,10.777720755869751,-60.8670303719235)" fill="#ffffff"><path d="M4.4 29.96 c-1.48 0.88 -2.12 1.96 -1.88 2.96 c0.2 0.8 0.88 2.28 1.48 4.08 c1.6 -1.28 3.08 -2.24 4.6 -2.92 c0.12 -0.08 0.6 -0.16 0.76 -0.12 c0.32 0.12 -0.08 0.28 -0.32 0.4 c-1.32 0.52 -3 1.8 -4.8 3.4 c0.48 1.6 0.88 3.36 0.88 5.2 c0 4.24 -3.56 6.8 -5.88 6.8 c-3.28 0 -3.44 -4.76 1.92 -10.12 c0.76 -0.76 1.48 -1.44 2.16 -2.04 c-0.52 -1.56 -1.16 -3.04 -1.44 -4.2 c-0.6 -2.2 0.84 -3.92 2.04 -4.04 c0.92 -0.12 0.88 0.4 0.48 0.6 z M4.4 42.44 c0 -1.32 -0.36 -2.72 -0.8 -4.08 l-1.72 1.68 c-4.84 4.88 -4.76 9.04 -3.04 9.04 c2.56 0 5.56 -2.96 5.56 -6.64 z M15.32 35.04 c2.08 -3.56 4.44 -7.4 6.16 -10.24 l0.96 -2.6 c1.6 -4.32 1.76 -4.84 2.12 -4.84 s0.96 0.8 0.88 1.2 c-0.04 0.2 -1.08 2.16 -2.64 5 c-1.64 4.92 -3.72 10.76 -5.52 17.2 c-1.96 6.96 -2.12 9.88 -1.76 9.96 c0.32 0.08 -0.12 0.72 -0.56 0.48 c-0.6 -0.32 -0.28 -3.56 1.68 -10.84 c1.24 -4.6 2.6 -8.92 3.88 -12.72 c-1.44 2.44 -3.04 5.12 -4.6 7.6 c0.6 0.28 1.04 0.56 1.28 0.76 c0.24 0.24 0.04 0.52 -0.28 0.36 l-1.36 -0.6 c-4.72 7.4 -5.32 8.32 -6.08 8.32 c-0.64 0 -1.32 -0.92 -1.32 -2.2 c0 -3.2 2.4 -7.12 5.64 -7.12 c0.48 0 1.04 0.12 1.52 0.28 z M9.48 43.36 c0.44 0 4.04 -5.32 5.48 -7.76 c-0.24 -0.04 -0.48 -0.08 -0.72 -0.08 c-3 0 -5.16 3.72 -5.16 6.32 c0 0.68 0.04 1.52 0.4 1.52 z"></path></g><g id="SvgjsG5696" featurekey="nameFeature-1" transform="matrix(0.7475236056333916,0,0,0.7475236056333916,2.2978382856277935,116.94992027563109)" fill="#ffffff"><path d="M4.4 29.96 c-1.48 0.88 -2.12 1.96 -1.88 2.96 c0.2 0.8 0.88 2.28 1.48 4.08 c1.6 -1.28 3.08 -2.24 4.6 -2.92 c0.12 -0.08 0.6 -0.16 0.76 -0.12 c0.32 0.12 -0.08 0.28 -0.32 0.4 c-1.32 0.52 -3 1.8 -4.8 3.4 c0.48 1.6 0.88 3.36 0.88 5.2 c0 4.24 -3.56 6.8 -5.88 6.8 c-3.28 0 -3.44 -4.76 1.92 -10.12 c0.76 -0.76 1.48 -1.44 2.16 -2.04 c-0.52 -1.56 -1.16 -3.04 -1.44 -4.2 c-0.6 -2.2 0.84 -3.92 2.04 -4.04 c0.92 -0.12 0.88 0.4 0.48 0.6 z M4.4 42.44 c0 -1.32 -0.36 -2.72 -0.8 -4.08 l-1.72 1.68 c-4.84 4.88 -4.76 9.04 -3.04 9.04 c2.56 0 5.56 -2.96 5.56 -6.64 z M16.52 40.2 c2.8 0 10.92 -3.76 13.36 -5.08 c0.2 -0.12 1.04 -0.08 0.36 0.36 c-2.64 1.72 -11.12 5.56 -13.76 5.56 c-1.96 0 -2.52 -1.16 -2.52 -2 s0.16 -1.24 0.08 -1.32 c-0.12 -0.12 -0.36 -0.08 -1.64 0.6 c-1.16 0.68 -2.44 1.2 -2.84 1.2 c-0.56 0 -0.96 -0.36 -0.96 -0.6 c0 -0.76 0.48 -1.8 2 -2.92 c1.28 -1 2.08 -1.2 2.76 -1.2 c0.92 0 1.48 1.44 1.08 1.44 s-0.52 -0.8 -0.96 -0.8 c-0.4 0 -1.2 0.32 -2.32 1.08 c-1.04 0.68 -1.84 1.84 -1.84 2.16 c0 0.08 0.04 0.12 0.16 0.12 c0.36 0 1.04 -0.28 2.16 -0.84 c1.52 -0.72 2.52 -1.28 3 -1.28 c0.16 0 0.52 0.08 0.52 0.36 c0 0.32 -0.4 1.04 -0.4 1.96 c0 0.68 0.72 1.2 1.76 1.2 z M31.560000000000002 41.24 c-0.88 -0.12 -1.48 -1.04 -0.52 -3.04 c0.4 -0.88 0.68 -1.4 0.68 -1.6 c0 -0.16 -0.12 -0.28 -0.96 -0.6 c-1.08 -0.4 -1.24 -1.44 -1.04 -2.24 c0.36 -1.44 1.52 -1.88 2.12 -1.76 c0.32 0.08 0.76 0.52 0.72 0.84 c-0.12 1.04 -0.76 1.72 -1.84 2.32 c0.08 0.08 0.2 0.16 0.36 0.2 c1.48 0.6 1.68 0.72 1.68 1.08 c0 0.32 -0.44 0.96 -0.96 2.08 c-0.6 1.24 -0.64 1.76 0.04 1.84 c2.24 0.28 7.96 -1.52 12.16 -5.12 c0.4 -0.36 0.88 -0.08 0.52 0.24 c-4.24 4.04 -10.92 6.04 -12.96 5.76 z M30.52 33.96 c-0.08 0.24 -0.12 0.48 -0.04 0.72 c1.16 -0.72 1.44 -1.32 1.48 -1.88 c0 -0.08 0 -0.12 -0.08 -0.16 c-0.4 -0.12 -1.16 0.68 -1.36 1.32 z M55.559999999999995 42.08 c-1.04 0 -0.96 -1 -0.48 -3.72 c0.52 -2.88 0.6 -3.24 0.4 -3.32 c-0.28 -0.16 -1.68 1.24 -2.72 2.52 c-1.28 1.56 -1.88 1.96 -2.36 1.88 c-0.44 -0.08 -0.56 -0.56 -0.04 -3.36 c0.44 -2.2 0.52 -3.48 0.2 -3.68 c-0.44 -0.24 -0.96 0.16 -3.16 3.68 c-2.4 3.96 -2.92 5.76 -3.56 5.76 c-0.36 0 -0.48 -0.32 -0.4 -0.88 c0.36 -2.16 0.52 -4.52 0.56 -5.4 c0.04 -0.8 1.12 -0.8 1.04 0.08 c-0.12 0.92 -0.52 2.8 -0.72 3.92 c-0.08 0.6 0.8 -1.04 2.44 -3.8 c2.04 -3.36 3 -4.36 3.88 -4.2 c1.16 0.24 0.88 1.92 0.4 4.56 l-0.36 1.96 c-0.12 0.64 0.12 0.8 0.64 0.16 c0.24 -0.24 0.56 -0.56 0.84 -0.92 c1.48 -1.8 2.92 -3.24 3.56 -3.24 c0.44 0 0.68 0.44 0.68 0.88 s-0.16 1.6 -0.56 3.44 c-0.52 2.4 -0.48 3 -0.12 3 c1.88 0 7.04 -3.04 12.36 -6.28 c0.2 -0.12 0.96 0.12 0.32 0.52 c-3.68 2.4 -10.2 6.44 -12.84 6.44 z M80.47999999999999 34.96 c0.2 0 0.36 0.4 0.16 0.48 c-0.48 0.12 -2.4 1.2 -7 2.76 c-3.64 1.24 -4.56 1.44 -5.2 1.44 c-1.04 0 -1.36 -0.72 -1.36 -1.36 c0 -0.6 0.16 -1.64 0.4 -2.32 c0.16 -0.56 0.36 -0.88 1.04 -1 c0.2 -0.04 0.44 0.2 0.2 0.64 c-0.6 1.24 -0.72 2 -0.8 2.64 c-0.04 0.48 0.16 0.72 0.36 0.72 c0.52 0 1.64 -0.12 5.04 -1.32 c3.92 -1.4 6.92 -2.68 7.16 -2.68 z M69.32 32.12 c-0.2 -0.08 -0.36 -0.76 -0.28 -1.04 c0.08 -0.24 0.4 -0.68 0.64 -0.64 c0.36 0.08 0.6 0.56 0.52 0.92 c-0.12 0.36 -0.64 0.8 -0.88 0.76 z M82.16 29.96 c-1.48 0.88 -2.12 1.96 -1.88 2.96 c0.2 0.8 0.88 2.28 1.48 4.08 c1.6 -1.28 3.08 -2.24 4.6 -2.92 c0.12 -0.08 0.6 -0.16 0.76 -0.12 c0.32 0.12 -0.08 0.28 -0.32 0.4 c-1.32 0.52 -3 1.8 -4.8 3.4 c0.48 1.6 0.88 3.36 0.88 5.2 c0 4.24 -3.56 6.8 -5.88 6.8 c-3.28 0 -3.44 -4.76 1.92 -10.12 c0.76 -0.76 1.48 -1.44 2.16 -2.04 c-0.52 -1.56 -1.16 -3.04 -1.44 -4.2 c-0.6 -2.2 0.84 -3.92 2.04 -4.04 c0.92 -0.12 0.88 0.4 0.48 0.6 z M82.16 42.44 c0 -1.32 -0.36 -2.72 -0.8 -4.08 l-1.72 1.68 c-4.84 4.88 -4.76 9.04 -3.04 9.04 c2.56 0 5.56 -2.96 5.56 -6.64 z M88.32 50.36 c-0.52 0.12 -0.88 -1.48 -0.84 -4.44 c0.08 -2.44 0.68 -10.84 1.88 -17.28 c0.28 -1.48 0.56 -2.8 0.84 -4 c-7.8 0 -8.52 0.04 -8.68 -0.56 c-0.08 -0.36 1.04 -0.84 1.36 -0.64 c0.4 0.24 0.68 0.36 1.84 0.36 l5.68 0.04 c1.28 -5.12 2.48 -7.2 3.04 -7.2 c0.32 0 0.56 0.96 0.48 1.32 c-0.12 0.48 -0.28 -0.2 -0.72 0.76 c-0.08 0.12 -0.92 2.32 -1.68 5.12 c1.4 0 1.92 0.12 5.88 0.12 c3.68 0 4.64 -0.2 4.76 0.24 c0.08 0.48 -1.88 0.44 -4.88 0.44 l-6 0 c-0.36 1.44 -0.72 2.96 -0.96 4.44 c-0.36 1.96 -0.96 5.44 -1.48 9.64 c-0.32 2.28 -0.72 7.96 -0.48 9.88 c0.2 1.52 0.52 1.68 -0.04 1.76 z M96.47999999999999 26.92 c1.84 -8.64 2.88 -10.8 3.52 -10.8 c0.36 0 0.44 0.96 0.36 1.32 c-0.12 0.48 -0.64 1.32 -1.08 2.28 c-0.08 0.2 -1.12 4.16 -1.88 7.72 c-1.12 5 -1.88 9.8 -2.16 11.96 c2.28 -1.52 3.6 -2.52 4.48 -2.56 c0.76 0 0.84 0.64 0.84 1.48 c0 1.04 -0.08 1.52 0.64 1.52 c2.72 0 7.36 -2.6 10.72 -4.56 c0.48 -0.24 0.92 0.28 0.2 0.64 c-4.4 2.4 -7.44 4.64 -10.76 4.68 c-1.16 0 -1.72 -0.8 -1.72 -1.8 c0 -0.56 0.12 -1 -0.12 -1 c-0.4 0 -2.48 1.2 -4 2.2 c-0.32 0.24 -0.64 0.48 -0.88 0.48 s-0.44 -0.44 -0.32 -1.28 c0.32 -2.4 1.04 -7.08 2.16 -12.28 z M116.71999999999998 40.2 c2.8 0 10.92 -3.76 13.36 -5.08 c0.2 -0.12 1.04 -0.08 0.36 0.36 c-2.64 1.72 -11.12 5.56 -13.76 5.56 c-1.96 0 -2.52 -1.16 -2.52 -2 s0.16 -1.24 0.08 -1.32 c-0.12 -0.12 -0.36 -0.08 -1.64 0.6 c-1.16 0.68 -2.44 1.2 -2.84 1.2 c-0.56 0 -0.96 -0.36 -0.96 -0.6 c0 -0.76 0.48 -1.8 2 -2.92 c1.28 -1 2.08 -1.2 2.76 -1.2 c0.92 0 1.48 1.44 1.08 1.44 s-0.52 -0.8 -0.96 -0.8 c-0.4 0 -1.2 0.32 -2.32 1.08 c-1.04 0.68 -1.84 1.84 -1.84 2.16 c0 0.08 0.04 0.12 0.16 0.12 c0.36 0 1.04 -0.28 2.16 -0.84 c1.52 -0.72 2.52 -1.28 3 -1.28 c0.16 0 0.52 0.08 0.52 0.36 c0 0.32 -0.4 1.04 -0.4 1.96 c0 0.68 0.72 1.2 1.76 1.2 z"></path></g></svg>