<svg width="429" height="79.12989923959017" viewBox="0 0 350 64.5581928528125" class="looka-1j8o68f"><defs id="SvgjsDefs2350"></defs><g id="SvgjsG2351" featurekey="nameFeature-0" transform="matrix(2.5246759513432813,0,0,2.5246759513432813,3.1437708322693507,-39.531113585542634)" fill="#ffffff"><path d="M-1 40.88 c-0.6 -0.72 -0.04 -1.52 1.04 -2.04 c1.04 -0.52 1.24 -1.32 0.92 -2.04 c-1.04 -2.36 -1.36 -3 -1.12 -3.96 c0.24 -0.84 0.92 -1.4 1.72 -1.44 c0.76 -0.04 1.28 0.32 1.6 0.96 c0.28 0.56 0.2 1.48 -0.52 1.96 c-0.16 0.08 -0.44 0.24 -0.6 0.08 c-0.24 -0.16 -0.12 -0.32 0.08 -0.52 c1.04 -0.8 -0.08 -2.2 -0.96 -1.52 c-0.96 0.72 -0.56 1.88 0.76 4.72 c0.12 0.24 0.4 0.6 0.88 0.36 c0.92 -0.4 2.08 -0.92 3.2 -1.44 c2.04 -0.96 3.88 -2.12 5.76 -3.36 c0.24 -0.16 0.56 -0.6 0.84 -0.16 c0.24 0.36 -0.16 0.52 -0.44 0.72 c-2.64 1.88 -5.4 3.44 -8.44 4.6 c-0.96 0.36 -1.68 1 -1.92 1.92 c-0.28 1 -2.04 2.08 -2.8 1.16 z M0.28 40.44 c0.92 -0.36 1.28 -1.68 0.48 -1.28 c-1.72 0.84 -1.24 1.6 -0.48 1.28 z M28.988 32.44 c0.4 0.32 -0.04 0.6 -0.24 0.76 c-2.16 2.12 -4.04 4.04 -6.6 5.64 c-0.48 0.28 -0.92 0.56 -1.4 0.76 c-0.92 0.36 -1.84 0.4 -2.64 -0.24 c-0.84 -0.68 -0.8 -1.64 -0.6 -2.56 c0.16 -0.68 0.4 -1.36 0.6 -2 c-1.76 0.84 -2.8 2.64 -4.44 3.68 c-0.56 0.36 -1.08 0.76 -1.68 1.04 c-0.72 0.32 -1.4 0.48 -2.04 -0.08 c-0.6 -0.56 -0.64 -1.32 -0.48 -2.04 c0.6 -2.84 4 -5.64 6.96 -5.72 c0.56 0 1.16 0.2 1.68 0.52 c0.24 0.16 0.44 0.56 0.8 0.36 c0.44 -0.24 0.8 -1 1.28 -0.2 c0.36 0.52 -0.16 0.96 -0.36 1.44 c-0.48 1 -1.12 1.96 -1.36 3.08 c-0.16 0.72 -0.4 1.4 0.32 1.96 c0.72 0.52 1.36 0.28 2.04 -0.08 c1.44 -0.68 2.72 -1.64 3.88 -2.76 c1.2 -1.16 2.28 -2 3.48 -3.16 c0.2 -0.24 0.48 -0.64 0.8 -0.4 z M17.268 34.24 c0.32 -0.32 0.68 -0.68 0.48 -1.2 c-0.28 -0.68 -0.92 -0.36 -1.32 -0.44 c-2.44 0 -5.04 2 -5.96 4.52 c-0.2 0.64 -0.56 1.28 0.12 1.8 c0.6 0.52 1.16 0.04 1.6 -0.24 c1.96 -1.16 3.48 -2.84 5.08 -4.44 z M32.855999999999995 40.16 c-1.6 0 -2.12 -0.56 -2.16 -2.08 c-0.04 -1.4 0.6 -2.56 1.36 -3.64 c0.64 -0.92 0.64 -1.44 -0.6 -1.56 c-0.32 -0.04 -0.64 -0.24 -0.96 -0.32 c-0.24 -0.08 -0.52 -0.16 -0.76 -0.28 c-0.76 -0.32 -1.08 -0.96 -0.92 -1.76 c0.32 -1.68 1.2 -2.96 2.72 -3.68 c0.68 -0.36 1.48 -0.4 2.08 0.16 c0.48 0.48 0.76 1.08 0.44 1.8 c-0.32 0.8 -0.6 1.64 -1.28 2.2 c-0.8 0.64 -1.16 1.08 0.08 1.6 c0.76 0.32 0.72 1 0.28 1.68 c-0.56 0.84 -1.08 1.68 -1.48 2.6 c-0.32 0.72 -0.48 1.64 0.12 2.24 c0.6 0.64 1.48 0.4 2.24 0.08 c1.6 -0.64 2.88 -1.6 4.2 -2.76 c1.2 -1.04 2.76 -2.52 4.12 -3.76 c0.24 -0.16 0.44 -0.6 0.8 -0.24 c0.24 0.24 -0.04 0.48 -0.2 0.64 c-2.56 2.32 -4.8 4.84 -7.92 6.48 c-0.72 0.36 -1.44 0.68 -2.16 0.6 z M30.456 31.72 c1.2 0.12 3.32 -2.76 2.88 -3.8 c-0.28 -0.64 -0.76 -0.68 -1.32 -0.48 c-0.92 0.28 -2.4 2.24 -2.48 3.2 c-0.04 0.72 0.52 0.84 0.92 1.08 z M55.403999999999996 39.72 c-1.08 -1.04 -0.68 -2.28 -0.24 -3.48 c0.2 -0.44 0.44 -0.84 0.56 -1.28 c0.32 -0.84 1.4 -1.8 0.52 -2.48 c-0.6 -0.48 -1.68 0.36 -2.44 0.88 c-1.32 0.84 -2.4 1.92 -3.44 3.04 c-0.4 0.44 -0.84 0.84 -1.24 1.28 c-0.24 0.2 -0.52 0.24 -0.76 0.08 c-0.28 -0.2 -0.12 -0.44 0 -0.68 c0.48 -1 0.96 -2.04 1.4 -3.08 c0.2 -0.48 0.68 -1.08 0.16 -1.44 c-0.4 -0.28 -0.96 0.2 -1.44 0.44 c-2.24 1.2 -3.6 3.32 -5.24 5.12 c-0.2 0.2 -0.28 0.44 -0.48 0.64 c-0.24 0.28 -0.48 0.76 -0.96 0.48 c-0.44 -0.24 -0.16 -0.72 -0.12 -1.08 c0.44 -2.04 1.56 -3.8 2.24 -5.72 c0.08 -0.24 0.36 -0.48 0.64 -0.36 c0.24 0.12 0.24 0.44 0.16 0.72 c-0.52 1.28 -1.2 2.68 -1.68 3.92 c-0.12 0.2 0.16 0.16 0.28 0.04 c0.88 -0.76 1.56 -1.76 2.44 -2.56 c0.56 -0.48 1.08 -0.96 1.68 -1.36 c0.92 -0.6 1.92 -1.72 3 -1.08 c1.12 0.64 0.16 1.88 0 2.84 c-0.04 0.24 -0.16 0.44 -0.04 0.56 c0.08 0.08 0.24 0.04 0.48 -0.2 c1.48 -1.16 2.4 -2.52 4.32 -3.12 c0.6 -0.2 1.2 -0.44 1.72 -0.04 c0.6 0.52 0.48 1.24 0.24 1.88 c-0.4 1.04 -0.96 2 -1.36 3.04 c-0.32 0.88 -0.6 1.96 0.24 2.6 c0.72 0.64 1.64 0.2 2.4 -0.24 c1.36 -0.8 3.4 -2.44 8.16 -6.6 c0.16 -0.16 0.4 -0.44 0.6 -0.08 c0.08 0.08 -0.12 0.36 -0.24 0.48 c-2.8 2.64 -4.84 4.6 -8.12 6.68 c-1.04 0.64 -2.32 1.28 -3.44 0.16 z M70.392 28.64 c-0.44 0.04 -0.72 -0.24 -0.8 -0.68 c-0.16 -1 0.76 -1.16 1.32 -1.44 c0.4 -0.2 0.68 0.2 0.8 0.64 c-0.24 0.64 -0.48 1.36 -1.32 1.48 z M68.512 39.68 c-1.48 0.44 -2.68 -0.56 -2.56 -2.16 c0.44 -1.68 1.24 -3.36 2.04 -5.04 c0.16 -0.32 0.44 -0.6 0.76 -0.36 c0.4 0.28 0.04 0.6 -0.08 0.88 c-0.52 1.2 -1.12 2.4 -1.56 3.64 c-0.24 0.72 -0.56 1.56 0.24 2.24 c0.52 0.4 1.4 0 2.04 -0.24 c2.52 -1.04 4.52 -3.96 7.44 -6.12 c0.2 -0.12 0.36 -0.44 0.6 -0.12 c0.2 0.24 -0.04 0.44 -0.24 0.56 c-3.88 2.8 -4.6 5.56 -8.68 6.72 z M77.38 40.88 c-0.6 -0.72 -0.04 -1.52 1.04 -2.04 c1.04 -0.52 1.24 -1.32 0.92 -2.04 c-1.04 -2.36 -1.36 -3 -1.12 -3.96 c0.24 -0.84 0.92 -1.4 1.72 -1.44 c0.76 -0.04 1.28 0.32 1.6 0.96 c0.28 0.56 0.2 1.48 -0.52 1.96 c-0.16 0.08 -0.44 0.24 -0.6 0.08 c-0.24 -0.16 -0.12 -0.32 0.08 -0.52 c1.04 -0.8 -0.08 -2.2 -0.96 -1.52 c-0.96 0.72 -0.56 1.88 0.76 4.72 c0.12 0.24 0.4 0.6 0.88 0.36 c0.92 -0.4 2.08 -0.92 3.2 -1.44 c2.04 -0.96 3.88 -2.12 5.76 -3.36 c0.24 -0.16 0.56 -0.6 0.84 -0.16 c0.24 0.36 -0.16 0.52 -0.44 0.72 c-2.64 1.88 -5.4 3.44 -8.44 4.6 c-0.96 0.36 -1.68 1 -1.92 1.92 c-0.28 1 -2.04 2.08 -2.8 1.16 z M78.66 40.44 c0.92 -0.36 1.28 -1.68 0.48 -1.28 c-1.72 0.84 -1.24 1.6 -0.48 1.28 z M93.848 40.08 c-2.36 0.16 -3.12 -0.56 -3.24 -2.88 c-0.08 -2.08 0.76 -3.92 1.52 -5.72 c0.84 -1.96 1.72 -3.88 2.6 -5.8 c0.2 -0.48 0.76 -1.32 0.48 -1.48 c-0.08 -0.16 -1.44 0.04 -1.92 0.04 c-1.16 0.12 -3.36 0.24 -4.08 0.24 c-0.24 0 -0.6 0 -0.56 -0.4 c0.04 -0.36 0.4 -0.32 0.6 -0.32 c0.92 -0.04 3.12 -0.12 4.68 -0.24 c2.24 -0.16 1.96 -0.32 2.96 -2.56 c0.52 -1.28 1.24 -2.48 1.88 -3.72 c0.16 -0.28 0.36 -0.68 0.72 -0.48 c0.4 0.2 0.08 0.56 -0.04 0.84 c-0.68 1.36 -1.36 2.72 -2 4.12 c-0.72 1.6 -0.84 1.6 0.04 1.56 c1.04 0 1.64 -0.08 2.04 -0.08 c0.6 0 1.32 -0.16 2.04 -0.16 c0.92 -0.04 1.2 -0.24 1.24 0.32 c0 0.36 -0.52 0.28 -1.4 0.36 c-0.92 0.08 -2.44 0.24 -3.96 0.32 c-1 0 -1.12 0.16 -1.4 0.84 c-1.48 3.48 -3.36 6.76 -4.4 10.4 c-0.36 1.32 -0.76 2.76 0.44 3.72 c1.28 1 2.64 0.32 3.8 -0.52 c2.08 -1.48 4 -3.68 5.68 -5.56 c0.24 -0.28 0.52 -0.84 0.88 -0.6 c0.48 0.4 -0.12 0.68 -0.44 1.24 c-1.92 2.16 -3.68 4.12 -6 5.68 c-0.64 0.44 -1.32 0.8 -2.16 0.84 z M120.636 32.4 c0.36 0.24 0.12 0.48 -0.08 0.64 c-2.68 2.36 -4.8 4.88 -8 6.68 c-1.24 0.68 -2.76 1.64 -4.04 0.52 c-1.36 -1.24 -0.44 -2.84 0.12 -4.24 c0.36 -0.92 0.92 -1.8 1.24 -2.72 c0.24 -0.72 0.08 -1.16 -0.88 -0.8 c-2.24 0.88 -3.96 2.44 -5.6 4.08 c-0.4 0.44 -0.76 0.92 -1.16 1.4 c-0.24 0.28 -0.48 0.8 -0.88 0.52 c-0.32 -0.24 -0.16 -0.72 0 -1.12 c0.92 -2.2 1.76 -4.44 2.72 -6.64 c1.76 -4 3.6 -8 6.24 -11.52 c1 -1.32 2.12 -2.56 3.68 -3.24 c1.96 -0.84 3.48 0.12 3.44 2.28 c-0.08 2.24 -1.32 4.04 -2.68 5.64 c-2.24 2.68 -4.84 5 -7.96 6.6 c-2 1 -2.96 2.52 -3.4 4.52 c-0.04 0.16 -0.04 0.32 0.2 0.2 c1.28 -0.96 2.4 -2.08 3.84 -2.84 c0.64 -0.36 1.24 -0.76 2 -0.8 c1.28 -0.08 1.76 0.44 1.36 1.68 c-0.32 0.92 -0.84 1.8 -1.24 2.68 c-0.28 0.64 -0.56 1.24 -0.76 1.84 c-0.2 0.64 -0.36 1.36 0.16 1.88 c0.56 0.56 1.24 0.36 1.88 0.12 c2.52 -0.92 5.32 -3.48 9.16 -7.08 c0.16 -0.16 0.4 -0.44 0.64 -0.28 z M106.996 26.52 c-0.56 1.24 -1.44 2.32 -1.44 3.76 c4.28 -2 7.68 -5.04 10.16 -9.08 c0.44 -0.72 0.72 -1.56 0.96 -2.36 c0.2 -0.72 0.2 -1.48 -0.44 -2.04 c-0.72 -0.56 -1.52 -0.4 -2.24 0 c-0.96 0.6 -1.8 1.36 -2.52 2.24 c-1.8 2.32 -3.28 4.8 -4.48 7.48 z M137.224 32.44 c0.4 0.32 -0.04 0.6 -0.24 0.76 c-2.16 2.12 -4.04 4.04 -6.6 5.64 c-0.48 0.28 -0.92 0.56 -1.4 0.76 c-0.92 0.36 -1.84 0.4 -2.64 -0.24 c-0.84 -0.68 -0.8 -1.64 -0.6 -2.56 c0.16 -0.68 0.4 -1.36 0.6 -2 c-1.76 0.84 -2.8 2.64 -4.44 3.68 c-0.56 0.36 -1.08 0.76 -1.68 1.04 c-0.72 0.32 -1.4 0.48 -2.04 -0.08 c-0.6 -0.56 -0.64 -1.32 -0.48 -2.04 c0.6 -2.84 4 -5.64 6.96 -5.72 c0.56 0 1.16 0.2 1.68 0.52 c0.24 0.16 0.44 0.56 0.8 0.36 c0.44 -0.24 0.8 -1 1.28 -0.2 c0.36 0.52 -0.16 0.96 -0.36 1.44 c-0.48 1 -1.12 1.96 -1.36 3.08 c-0.16 0.72 -0.4 1.4 0.32 1.96 c0.72 0.52 1.36 0.28 2.04 -0.08 c1.44 -0.68 2.72 -1.64 3.88 -2.76 c1.2 -1.16 2.28 -2 3.48 -3.16 c0.2 -0.24 0.48 -0.64 0.8 -0.4 z M125.50399999999999 34.24 c0.32 -0.32 0.68 -0.68 0.48 -1.2 c-0.28 -0.68 -0.92 -0.36 -1.32 -0.44 c-2.44 0 -5.04 2 -5.96 4.52 c-0.2 0.64 -0.56 1.28 0.12 1.8 c0.6 0.52 1.16 0.04 1.6 -0.24 c1.96 -1.16 3.48 -2.84 5.08 -4.44 z"></path></g></svg>